<svg width="674" height="321" viewBox="0 0 674 321" fill="none" xmlns="http://www.w3.org/2000/svg">
<path fill-rule="evenodd" clip-rule="evenodd" d="M40 1C17.9086 1 0 18.9086 0 41V280C0 302.091 17.9086 320 40 320H325V1H40ZM97.4429 271L116.526 216.177H207.735L226.979 271H269.673L180.566 35.5378H143.856L54.9109 271H97.4429ZM162.13 85.5089L196.253 183.187H128.008L162.13 85.5089Z" fill="black"/>
<path fill-rule="evenodd" clip-rule="evenodd" d="M634 0C656.091 0 674 17.9086 674 40V281C674 303.091 656.091 321 634 321H347V0H634ZM632.956 73.2277H635.222V49.6608H513.308L527.811 75.4938H574.945V149.367L565.881 154.806L555.457 158.431L550.018 160.244L545.486 161.151L540.501 162.057H535.062L524.638 161.604L515.574 158.885L506.51 155.259L499.712 150.273L503.791 146.648L510.589 138.943C513.308 132.598 514.819 128.066 515.121 125.347V114.923C515.121 106.765 513.157 98.9097 509.229 91.3561C499.863 73.2277 487.777 60.84 472.972 54.1929C468.44 50.8693 462.246 49.2076 454.391 49.2076H447.593L436.716 51.4736C431.277 52.6822 425.839 54.7972 420.4 57.8185L414.508 60.991L406.35 65.9764L422.213 92.2626C425.536 87.1262 432.032 83.0473 441.701 80.0259L451.671 76.8534L461.189 75.947C472.368 77.1555 479.771 80.0259 483.396 84.558C487.022 87.5794 489.439 90.903 490.648 94.5286C491.856 98.1543 492.46 102.686 492.46 108.125C492.46 112.959 490.648 117.491 487.022 121.721C478.26 131.994 463.606 137.13 443.06 137.13H433.09L450.312 162.51L462.095 164.776L474.785 162.963L485.662 158.431C490.194 162.359 493.518 167.193 495.633 172.934C497.748 178.373 498.805 184.869 498.805 192.422C498.805 196.048 498.654 198.767 498.352 200.58C496.539 207.831 493.669 213.723 489.741 218.255C483.396 225.204 474.785 228.679 463.908 228.679C452.729 228.679 442.305 225.204 432.637 218.255C423.27 211.004 414.659 199.673 406.804 184.264C395.624 162.812 390.035 144.231 390.035 128.519L374.172 136.677C374.172 140.605 374.777 145.288 375.985 150.727C378.402 162.208 382.33 172.934 387.769 182.905C400.459 207.076 410.883 223.996 419.04 233.664C434.147 251.188 450.916 259.951 469.347 259.951C475.087 259.951 479.922 259.346 483.849 258.138C495.935 254.814 505.301 249.224 511.948 241.369C520.408 231.096 524.638 219.01 524.638 205.112L521.466 192.875L511.948 174.294L506.51 166.136L514.668 172.028C520.106 175.653 524.034 178.07 526.451 179.279C535.213 184.718 543.824 187.135 552.284 186.53L560.442 186.077C564.37 184.566 566.787 183.66 567.693 183.358L573.585 180.639L574.945 179.732V273.094L602.591 294.394V75.4938H632.956V73.2277Z" fill="black"/>
</svg>
