<?xml version="1.0" encoding="utf-8"?>
<!-- Generator: Adobe Illustrator 24.1.3, SVG Export Plug-In . SVG Version: 6.00 Build 0)  -->
<svg version="1.1" id="Capa_1" xmlns="http://www.w3.org/2000/svg" xmlns:xlink="http://www.w3.org/1999/xlink" x="0px" y="0px"
	 viewBox="0 0 426.4 426.4" style="enable-background:new 0 0 426.4 426.4;" xml:space="preserve">
<g>
	<g>
		<path d="M307.2,272c-15.2-21.6-28-39.2-30.4-64c-4-40,11.2-68,24-92.8c5.6-11.2,11.2-21.6,14.4-32c2.4-8.8,0.8-31.2,0-36
			c0-4-4-7.2-8-7.2H118.4c-4,0-7.2,3.2-8,7.2s-2.4,26.4,0,36c3.2,10.4,8.8,20.8,14.4,32c12.8,24.8,27.2,52.8,24,92.8
			c-2.4,24.8-15.2,43.2-29.6,64c-18.4,26.4-40,56.8-40,106.4c0,4.8,3.2,8,8,8h252c4.8,0,8-3.2,8-8
			C347.2,328.8,325.6,299.2,307.2,272z M95.2,369.6c2.4-40,20-64.8,36.8-88.8c15.2-21.6,30.4-42.4,32.8-72
			c4-44.8-12-76.8-25.6-101.6c-5.6-10.4-10.4-20-12.8-28.8c-0.8-3.2-0.8-12.8,0-22.4H300c0.8,9.6,0.8,19.2,0,22.4
			c-2.4,8.8-8,18.4-12.8,28.8c-12.8,25.6-29.6,56.8-25.6,101.6c2.4,29.6,17.6,49.6,32.8,72c16.8,24,35.2,48.8,36.8,88.8L95.2,369.6
			L95.2,369.6z"/>
	</g>
</g>
</svg>
