<svg width="194" height="198" viewBox="0 0 194 198" fill="none" xmlns="http://www.w3.org/2000/svg">
<path d="M29.9385 46.6528H163.653C166.493 46.6528 168.796 43.6561 168.796 39.959V23.2243C168.796 19.5271 166.493 16.5304 163.653 16.5304H29.9385C27.098 16.5304 24.7957 19.5271 24.7957 23.2243V39.959C24.7957 43.6561 27.098 46.6528 29.9385 46.6528ZM29.9385 113.592H163.653C166.493 113.592 168.796 110.595 168.796 106.898V90.163C168.796 86.4659 166.493 83.4692 163.653 83.4692H29.9385C27.098 83.4692 24.7957 86.4659 24.7957 90.163V106.898C24.7957 110.595 27.098 113.592 29.9385 113.592ZM29.9385 180.53H163.653C166.493 180.53 168.796 177.534 168.796 173.837V157.102C168.796 153.405 166.493 150.408 163.653 150.408H29.9385C27.098 150.408 24.7957 153.405 24.7957 157.102V173.837C24.7957 177.534 27.098 180.53 29.9385 180.53Z" fill="white"/>
<rect x="2" y="2" width="189.591" height="193.061" rx="6.26519" stroke="white" stroke-width="4"/>
</svg>
